<svg width="44" height="44" viewBox="0 0 44 44" fill="none" xmlns="http://www.w3.org/2000/svg">
<g clip-path="url(#clip0_2110_1015)">
<path d="M22 28.5C29.732 28.5 36 22.232 36 14.5C36 6.76801 29.732 0.5 22 0.5C14.268 0.5 8 6.76801 8 14.5C8 22.232 14.268 28.5 22 28.5Z" fill="#002D84"/>
<path d="M21.6856 11.0428C21.6856 11.0428 21.6856 11.0428 21.6856 11.0428ZM21.6856 11.0428C21.6856 10.723 21.6866 10.4081 21.6876 10.0959C21.6886 9.78436 21.6896 9.47554 21.6896 9.16738C21.6896 9.15757 21.6896 9.14776 21.6896 9.13795C21.6895 8.83547 21.6885 8.53356 21.6856 8.23025C21.686 8.10408 21.694 7.99599 21.7066 7.90369M21.6856 11.0428L24.4315 8.14407V6.91948H23.4509C22.8317 6.91948 22.3787 7.0457 22.1146 7.20327M21.7066 7.90369C21.7946 7.68951 21.9084 7.48309 22.0503 7.28833C22.0714 7.25929 22.0929 7.23095 22.1146 7.20327M21.7066 7.90369C21.7326 7.7133 21.7781 7.59012 21.8155 7.51406C21.8693 7.40498 21.9407 7.3227 22.046 7.24786C22.0672 7.23278 22.0901 7.21789 22.1146 7.20327M21.7066 7.90369C21.6641 8.00728 21.6276 8.11267 21.5969 8.21945L24.4315 6.03061C24.1839 6.05023 23.8238 6.10331 23.4509 6.24078C23.4139 6.2544 23.3768 6.26885 23.3397 6.28418C22.9574 6.44211 22.4936 6.72085 22.1146 7.20327" fill="white" stroke="white" stroke-width="4.24448"/>
</g>
<path d="M0.881836 36.3271H5.85742V37.2061H1.85352V39.3838H5.37402V40.2383H1.85352V43.5H0.881836V36.3271ZM7.45898 42.1084C7.45898 42.3623 7.55176 42.5625 7.7373 42.709C7.92285 42.8555 8.14258 42.9287 8.39648 42.9287C8.70573 42.9287 9.00521 42.8571 9.29492 42.7139C9.7832 42.4762 10.0273 42.0872 10.0273 41.5469V40.8389C9.91992 40.9072 9.78158 40.9642 9.6123 41.0098C9.44303 41.0553 9.27702 41.0879 9.11426 41.1074L8.58203 41.1758C8.26302 41.2181 8.02376 41.2848 7.86426 41.376C7.59408 41.529 7.45898 41.7731 7.45898 42.1084ZM9.58789 40.3311C9.78971 40.305 9.9248 40.2204 9.99316 40.0771C10.0322 39.999 10.0518 39.8867 10.0518 39.7402C10.0518 39.4408 9.94434 39.2243 9.72949 39.0908C9.5179 38.9541 9.21354 38.8857 8.81641 38.8857C8.35742 38.8857 8.0319 39.0094 7.83984 39.2568C7.73242 39.3936 7.66243 39.597 7.62988 39.8672H6.80957C6.82585 39.2227 7.03418 38.7751 7.43457 38.5244C7.83822 38.2705 8.30534 38.1436 8.83594 38.1436C9.45117 38.1436 9.95085 38.2607 10.335 38.4951C10.7158 38.7295 10.9062 39.0941 10.9062 39.5889V42.6016C10.9062 42.6927 10.9242 42.766 10.96 42.8213C10.999 42.8766 11.0788 42.9043 11.1992 42.9043C11.2383 42.9043 11.2822 42.9027 11.3311 42.8994C11.3799 42.8929 11.432 42.8848 11.4873 42.875V43.5244C11.3506 43.5635 11.2464 43.5879 11.1748 43.5977C11.1032 43.6074 11.0055 43.6123 10.8818 43.6123C10.5791 43.6123 10.3594 43.5049 10.2227 43.29C10.151 43.1761 10.1006 43.015 10.0713 42.8066C9.89225 43.041 9.63509 43.2445 9.2998 43.417C8.96452 43.5895 8.59505 43.6758 8.19141 43.6758C7.70638 43.6758 7.30924 43.5293 7 43.2363C6.69401 42.9401 6.54102 42.5706 6.54102 42.1279C6.54102 41.6429 6.69238 41.2669 6.99512 41C7.29785 40.7331 7.69499 40.5687 8.18652 40.5068L9.58789 40.3311ZM14.3682 38.1191C14.9574 38.1191 15.4359 38.2624 15.8037 38.5488C16.1748 38.8353 16.3978 39.3285 16.4727 40.0283H15.6182C15.5661 39.7061 15.4473 39.4391 15.2617 39.2275C15.0762 39.0127 14.7783 38.9053 14.3682 38.9053C13.8083 38.9053 13.4079 39.1787 13.167 39.7256C13.0107 40.0804 12.9326 40.5182 12.9326 41.0391C12.9326 41.5632 13.0433 42.0042 13.2646 42.3623C13.486 42.7204 13.8343 42.8994 14.3096 42.8994C14.6742 42.8994 14.9622 42.7887 15.1738 42.5674C15.3887 42.3428 15.5368 42.0368 15.6182 41.6494H16.4727C16.375 42.3428 16.1309 42.8506 15.7402 43.1729C15.3496 43.4919 14.8499 43.6514 14.2412 43.6514C13.5576 43.6514 13.0124 43.4023 12.6055 42.9043C12.1986 42.403 11.9951 41.778 11.9951 41.0293C11.9951 40.1113 12.2181 39.3968 12.6641 38.8857C13.11 38.3747 13.6781 38.1191 14.3682 38.1191ZM19.5293 38.1533C19.9004 38.1533 20.2601 38.2412 20.6084 38.417C20.9567 38.5895 21.222 38.8141 21.4043 39.0908C21.5801 39.3545 21.6973 39.6621 21.7559 40.0137C21.8079 40.2546 21.834 40.6387 21.834 41.166H18.001C18.0173 41.6966 18.1426 42.123 18.377 42.4453C18.6113 42.7643 18.9743 42.9238 19.4658 42.9238C19.9248 42.9238 20.291 42.7725 20.5645 42.4697C20.7207 42.2939 20.8314 42.0905 20.8965 41.8594H21.7607C21.738 42.0514 21.6615 42.2663 21.5312 42.5039C21.4043 42.7383 21.2611 42.9303 21.1016 43.0801C20.8346 43.3405 20.5042 43.5163 20.1104 43.6074C19.8988 43.6595 19.6595 43.6855 19.3926 43.6855C18.7415 43.6855 18.1898 43.4495 17.7373 42.9775C17.2848 42.5023 17.0586 41.8382 17.0586 40.9854C17.0586 40.1455 17.2865 39.4635 17.7422 38.9395C18.1979 38.4154 18.7936 38.1533 19.5293 38.1533ZM20.9307 40.4678C20.8949 40.0869 20.8118 39.7826 20.6816 39.5547C20.4408 39.1315 20.0387 38.9199 19.4756 38.9199C19.0719 38.9199 18.7334 39.0664 18.46 39.3594C18.1865 39.6491 18.0417 40.0186 18.0254 40.4678H20.9307ZM22.8496 36.3027H23.7041V38.9053C23.8962 38.6546 24.1257 38.4642 24.3926 38.334C24.6595 38.2005 24.9492 38.1338 25.2617 38.1338C25.9128 38.1338 26.4401 38.3584 26.8438 38.8076C27.2507 39.2536 27.4541 39.9128 27.4541 40.7852C27.4541 41.612 27.2539 42.2988 26.8535 42.8457C26.4531 43.3926 25.8981 43.666 25.1885 43.666C24.7913 43.666 24.4561 43.57 24.1826 43.3779C24.0199 43.264 23.8457 43.0817 23.6602 42.8311V43.5H22.8496V36.3027ZM25.1348 42.8896C25.61 42.8896 25.9648 42.7008 26.1992 42.3232C26.4368 41.9456 26.5557 41.4476 26.5557 40.8291C26.5557 40.279 26.4368 39.8232 26.1992 39.4619C25.9648 39.1006 25.6182 38.9199 25.1592 38.9199C24.7588 38.9199 24.4072 39.068 24.1045 39.3643C23.805 39.6605 23.6553 40.1488 23.6553 40.8291C23.6553 41.3206 23.7171 41.7194 23.8408 42.0254C24.0719 42.6016 24.5033 42.8896 25.1348 42.8896ZM30.5596 42.9336C31.1423 42.9336 31.541 42.7139 31.7559 42.2744C31.974 41.8317 32.083 41.3402 32.083 40.7998C32.083 40.3115 32.0049 39.9144 31.8486 39.6084C31.6012 39.1266 31.1748 38.8857 30.5693 38.8857C30.0322 38.8857 29.6416 39.0908 29.3975 39.501C29.1533 39.9111 29.0312 40.4059 29.0312 40.9854C29.0312 41.542 29.1533 42.0059 29.3975 42.377C29.6416 42.748 30.029 42.9336 30.5596 42.9336ZM30.5938 38.1191C31.2676 38.1191 31.8372 38.3438 32.3027 38.793C32.7682 39.2422 33.001 39.903 33.001 40.7754C33.001 41.6185 32.7959 42.3151 32.3857 42.8652C31.9756 43.4154 31.3392 43.6904 30.4766 43.6904C29.7572 43.6904 29.1859 43.4479 28.7627 42.9629C28.3395 42.4746 28.1279 41.8203 28.1279 41C28.1279 40.1211 28.3509 39.4212 28.7969 38.9004C29.2428 38.3796 29.8418 38.1191 30.5938 38.1191ZM36.126 42.9336C36.7087 42.9336 37.1074 42.7139 37.3223 42.2744C37.5404 41.8317 37.6494 41.3402 37.6494 40.7998C37.6494 40.3115 37.5713 39.9144 37.415 39.6084C37.1676 39.1266 36.7412 38.8857 36.1357 38.8857C35.5986 38.8857 35.208 39.0908 34.9639 39.501C34.7197 39.9111 34.5977 40.4059 34.5977 40.9854C34.5977 41.542 34.7197 42.0059 34.9639 42.377C35.208 42.748 35.5954 42.9336 36.126 42.9336ZM36.1602 38.1191C36.834 38.1191 37.4036 38.3438 37.8691 38.793C38.3346 39.2422 38.5674 39.903 38.5674 40.7754C38.5674 41.6185 38.3623 42.3151 37.9521 42.8652C37.542 43.4154 36.9056 43.6904 36.043 43.6904C35.3236 43.6904 34.7523 43.4479 34.3291 42.9629C33.9059 42.4746 33.6943 41.8203 33.6943 41C33.6943 40.1211 33.9173 39.4212 34.3633 38.9004C34.8092 38.3796 35.4082 38.1191 36.1602 38.1191ZM39.5977 36.3271H40.4424V40.4922L42.6982 38.2705H43.8213L41.8193 40.2285L43.9336 43.5H42.8105L41.1797 40.8633L40.4424 41.5371V43.5H39.5977V36.3271Z" fill="#002D84"/>
<defs>
<clipPath id="clip0_2110_1015">
<rect width="28" height="28" fill="white" transform="translate(8 0.5)"/>
</clipPath>
</defs>
</svg>
