<svg width="114" height="28" viewBox="0 0 114 28" fill="none" xmlns="http://www.w3.org/2000/svg">
<g filter="url(#filter0_ii_2030_1065)">
<path d="M0.661565 1.02764C0.359852 1.34823 0.181518 1.84576 0.181518 2.49006V25.5098C0.181518 26.1551 0.359852 26.6516 0.661565 26.9722L0.738289 27.0471L13.5834 14.1519V13.9999V13.848L0.738289 0.95166L0.661565 1.02764Z" fill="url(#paint0_linear_2030_1065)"/>
<path d="M17.8641 18.4514L13.5831 14.1516V13.9997V13.8477L17.8652 9.54895L17.9616 9.60412L23.0347 12.4977C24.4832 13.3242 24.4832 14.6762 23.0347 15.5037L17.9616 18.3973L17.8641 18.4514Z" fill="url(#paint1_linear_2030_1065)"/>
<g filter="url(#filter1_i_2030_1065)">
<path d="M17.9618 18.3962L13.5823 13.9996L0.6615 26.9719C1.13844 27.4798 1.92745 27.5423 2.816 27.0364L17.9618 18.3962Z" fill="url(#paint2_linear_2030_1065)"/>
</g>
<path d="M17.9618 9.60323L2.816 0.964066C1.92745 0.457166 1.13844 0.520659 0.6615 1.0286L13.5833 14.0009L17.9618 9.60323Z" fill="url(#paint3_linear_2030_1065)"/>
</g>
<path d="M56.7 10.3243C54.3968 10.3243 52.5196 12.0753 52.5196 14.4869C52.5196 16.8839 54.3968 18.6495 56.7 18.6495C59.0041 18.6495 60.8813 16.8839 60.8813 14.4869C60.8803 12.0753 59.0031 10.3243 56.7 10.3243ZM56.7 17.0111C55.4377 17.0111 54.3498 15.9707 54.3498 14.4879C54.3498 12.9895 55.4387 11.9647 56.7 11.9647C57.9622 11.9647 59.0501 12.9895 59.0501 14.4879C59.0501 15.9697 57.9622 17.0111 56.7 17.0111ZM47.5793 10.3243C45.2762 10.3243 43.399 12.0753 43.399 14.4869C43.399 16.8839 45.2762 18.6495 47.5793 18.6495C49.8835 18.6495 51.7607 16.8839 51.7607 14.4869C51.7607 12.0753 49.8835 10.3243 47.5793 10.3243ZM47.5793 17.0111C46.3171 17.0111 45.2291 15.9707 45.2291 14.4879C45.2291 12.9895 46.3181 11.9647 47.5793 11.9647C48.8416 11.9647 49.9295 12.9895 49.9295 14.4879C49.9305 15.9697 48.8416 17.0111 47.5793 17.0111ZM36.7313 11.6026V13.3682H40.9597C40.8333 14.3617 40.5024 15.0869 39.9971 15.591C39.3821 16.2056 38.4195 16.8839 36.7313 16.8839C34.1285 16.8839 32.0936 14.7864 32.0936 12.1849C32.0936 9.58344 34.1285 7.48599 36.7313 7.48599C38.1355 7.48599 39.1608 8.038 39.9178 8.74759L41.1643 7.50165C40.1068 6.49257 38.7035 5.72034 36.7313 5.72034C33.1659 5.72034 30.1685 8.62133 30.1685 12.1849C30.1685 15.7485 33.1659 18.6495 36.7313 18.6495C38.6555 18.6495 40.1077 18.0182 41.2427 16.8359C42.4099 15.6693 42.7732 14.0289 42.7732 12.7046C42.7732 12.2955 42.7419 11.9168 42.6782 11.6016L36.7313 11.6026ZM81.0987 12.9738C80.752 12.044 79.6944 10.3243 77.5333 10.3243C75.3877 10.3243 73.6045 12.0117 73.6045 14.4869C73.6045 16.8203 75.3721 18.6495 77.7379 18.6495C79.6465 18.6495 80.751 17.4829 81.2093 16.8046L79.7894 15.8582C79.3164 16.5521 78.6692 17.0092 77.7379 17.0092C76.8076 17.0092 76.1447 16.5834 75.7187 15.7476L81.2877 13.4456L81.0987 12.9738ZM75.4191 14.3617C75.3721 12.7526 76.6656 11.9334 77.5969 11.9334C78.3225 11.9334 78.9375 12.2965 79.1431 12.8162L75.4191 14.3617ZM70.8921 18.398H72.7213V6.16273H70.8921V18.398ZM67.8936 11.2551H67.831C67.4207 10.7658 66.6314 10.3243 65.6384 10.3243C63.5556 10.3243 61.6471 12.1536 61.6471 14.5036C61.6471 16.8369 63.5556 18.6505 65.6384 18.6505C66.6324 18.6505 67.4207 18.2091 67.831 17.705H67.8936V18.304C67.8936 19.8964 67.0417 20.748 65.6698 20.748C64.5495 20.748 63.8552 19.9444 63.5713 19.2661L61.978 19.9287C62.4354 21.0318 63.6496 22.3883 65.6698 22.3883C67.8153 22.3883 69.6298 21.1267 69.6298 18.0515V10.5778H67.8946L67.8936 11.2551ZM65.7961 17.0111C64.5339 17.0111 63.4773 15.9541 63.4773 14.5036C63.4773 13.0364 64.5339 11.9647 65.7961 11.9647C67.0417 11.9647 68.0199 13.0364 68.0199 14.5036C68.0199 15.9541 67.0417 17.0111 65.7961 17.0111ZM89.6709 6.16273H85.2927V18.398H87.119V13.7627H89.6699C91.695 13.7627 93.6868 12.2975 93.6868 9.96319C93.6868 7.62889 91.696 6.16273 89.6709 6.16273ZM89.7179 12.0597H87.119V7.86574H89.7179C91.084 7.86574 91.8595 8.99619 91.8595 9.96319C91.8595 10.9106 91.084 12.0597 89.7179 12.0597ZM101.011 10.3028C99.6876 10.3028 98.3176 10.8852 97.7506 12.1761L99.3722 12.8524C99.7189 12.1761 100.365 11.9549 101.042 11.9549C101.987 11.9549 102.947 12.5216 102.963 13.5287V13.655C102.632 13.4661 101.923 13.1833 101.058 13.1833C99.3096 13.1833 97.5293 14.1434 97.5293 15.9374C97.5293 17.5749 98.9629 18.629 100.569 18.629C101.797 18.629 102.474 18.0779 102.899 17.432H102.962V18.3765H104.727V13.6853C104.728 11.5145 103.104 10.3028 101.011 10.3028ZM100.789 17.0082C100.192 17.0082 99.3566 16.7087 99.3566 15.9688C99.3566 15.0243 100.397 14.6621 101.294 14.6621C102.096 14.6621 102.475 14.8354 102.963 15.0712C102.821 16.2056 101.845 17.0082 100.789 17.0082ZM111.152 10.57L109.058 15.8748H108.995L106.821 10.57H104.853L108.113 17.984L106.254 22.1084H108.16L113.184 10.57H111.152ZM94.6954 18.398H96.5217V6.16273H94.6954V18.398Z" fill="#090909"/>
<defs>
<filter id="filter0_ii_2030_1065" x="0.181519" y="0.614258" width="23.9396" height="26.7716" filterUnits="userSpaceOnUse" color-interpolation-filters="sRGB">
<feFlood flood-opacity="0" result="BackgroundImageFix"/>
<feBlend mode="normal" in="SourceGraphic" in2="BackgroundImageFix" result="shape"/>
<feColorMatrix in="SourceAlpha" type="matrix" values="0 0 0 0 0 0 0 0 0 0 0 0 0 0 0 0 0 0 127 0" result="hardAlpha"/>
<feOffset dy="-0.795"/>
<feComposite in2="hardAlpha" operator="arithmetic" k2="-1" k3="1"/>
<feColorMatrix type="matrix" values="0 0 0 0 0 0 0 0 0 0 0 0 0 0 0 0 0 0 0.12 0"/>
<feBlend mode="normal" in2="shape" result="effect1_innerShadow_2030_1065"/>
<feColorMatrix in="SourceAlpha" type="matrix" values="0 0 0 0 0 0 0 0 0 0 0 0 0 0 0 0 0 0 127 0" result="hardAlpha"/>
<feOffset dy="0.795"/>
<feComposite in2="hardAlpha" operator="arithmetic" k2="-1" k3="1"/>
<feColorMatrix type="matrix" values="0 0 0 0 1 0 0 0 0 1 0 0 0 0 1 0 0 0 0.25 0"/>
<feBlend mode="normal" in2="effect1_innerShadow_2030_1065" result="effect2_innerShadow_2030_1065"/>
</filter>
<filter id="filter1_i_2030_1065" x="0.661499" y="13.9996" width="17.3003" height="13.3862" filterUnits="userSpaceOnUse" color-interpolation-filters="sRGB">
<feFlood flood-opacity="0" result="BackgroundImageFix"/>
<feBlend mode="normal" in="SourceGraphic" in2="BackgroundImageFix" result="shape"/>
<feColorMatrix in="SourceAlpha" type="matrix" values="0 0 0 0 0 0 0 0 0 0 0 0 0 0 0 0 0 0 127 0" result="hardAlpha"/>
<feOffset dy="-0.795"/>
<feComposite in2="hardAlpha" operator="arithmetic" k2="-1" k3="1"/>
<feColorMatrix type="matrix" values="0 0 0 0 0 0 0 0 0 0 0 0 0 0 0 0 0 0 0.08 0"/>
<feBlend mode="normal" in2="shape" result="effect1_innerShadow_2030_1065"/>
</filter>
<linearGradient id="paint0_linear_2030_1065" x1="12.4448" y1="2.24649" x2="-5.02286" y2="19.6462" gradientUnits="userSpaceOnUse">
<stop stop-color="#00A0FF"/>
<stop offset="0.0066" stop-color="#00A1FF"/>
<stop offset="0.2601" stop-color="#00BEFF"/>
<stop offset="0.5122" stop-color="#00D2FF"/>
<stop offset="0.7604" stop-color="#00DFFF"/>
<stop offset="1" stop-color="#00E3FF"/>
</linearGradient>
<linearGradient id="paint1_linear_2030_1065" x1="24.9202" y1="13.9997" x2="-0.166502" y2="13.9997" gradientUnits="userSpaceOnUse">
<stop stop-color="#FFE000"/>
<stop offset="0.4087" stop-color="#FFBD00"/>
<stop offset="0.7754" stop-color="#FFA500"/>
<stop offset="1" stop-color="#FF9C00"/>
</linearGradient>
<linearGradient id="paint2_linear_2030_1065" x1="15.5835" y1="16.3873" x2="-8.10484" y2="39.9835" gradientUnits="userSpaceOnUse">
<stop stop-color="#FF3A44"/>
<stop offset="1" stop-color="#C31162"/>
</linearGradient>
<linearGradient id="paint3_linear_2030_1065" x1="-2.59265" y1="-6.63444" x2="7.98483" y2="3.90192" gradientUnits="userSpaceOnUse">
<stop stop-color="#32A071"/>
<stop offset="0.0685" stop-color="#2DA771"/>
<stop offset="0.4762" stop-color="#15CF74"/>
<stop offset="0.8009" stop-color="#06E775"/>
<stop offset="1" stop-color="#00F076"/>
</linearGradient>
</defs>
</svg>
