<svg width="45" height="46" viewBox="0 0 45 46" fill="none" xmlns="http://www.w3.org/2000/svg">
<g clip-path="url(#clip0_2119_1020)">
<mask id="mask0_2119_1020" style="mask-type:luminance" maskUnits="userSpaceOnUse" x="8" y="0" width="29" height="29">
<path d="M22.5 28.5C30.232 28.5 36.5 22.232 36.5 14.5C36.5 6.76801 30.232 0.5 22.5 0.5C14.768 0.5 8.5 6.76801 8.5 14.5C8.5 22.232 14.768 28.5 22.5 28.5Z" fill="white"/>
</mask>
<g mask="url(#mask0_2119_1020)">
<path d="M14.5156 57.1562C31.1273 57.1562 44.5938 43.6898 44.5938 27.0781C44.5938 10.4664 31.1273 -3 14.5156 -3C-2.09607 -3 -15.5625 10.4664 -15.5625 27.0781C-15.5625 43.6898 -2.09607 57.1562 14.5156 57.1562Z" fill="#002D84"/>
</g>
<path d="M27.0312 10.5625C27.0312 10.8904 26.7654 11.1562 26.4375 11.1562C26.1096 11.1562 25.8438 10.8904 25.8438 10.5625C25.8438 10.2346 26.1096 9.96875 26.4375 9.96875C26.7654 9.96875 27.0312 10.2346 27.0312 10.5625Z" fill="white" stroke="white"/>
<path d="M20.8333 12.0056C21.3266 11.6759 21.9067 11.5 22.5 11.5C23.2957 11.5 24.0587 11.8161 24.6213 12.3787C25.1839 12.9413 25.5 13.7044 25.5 14.5C25.5 15.0933 25.3241 15.6734 24.9944 16.1667C24.6648 16.6601 24.1962 17.0446 23.6481 17.2716C23.0999 17.4987 22.4967 17.5581 21.9147 17.4424C21.3328 17.3266 20.7982 17.0409 20.3787 16.6213C19.9591 16.2018 19.6734 15.6672 19.5576 15.0853C19.4419 14.5033 19.5013 13.9001 19.7284 13.3519C19.9554 12.8038 20.3399 12.3352 20.8333 12.0056ZM21.25 16.3708C21.62 16.618 22.055 16.75 22.5 16.75C23.0967 16.75 23.669 16.5129 24.091 16.091C24.5129 15.669 24.75 15.0967 24.75 14.5C24.75 14.055 24.618 13.62 24.3708 13.25C24.1236 12.88 23.7722 12.5916 23.361 12.4213C22.9499 12.251 22.4975 12.2064 22.061 12.2932C21.6246 12.38 21.2237 12.5943 20.909 12.909C20.5943 13.2237 20.3801 13.6246 20.2932 14.061C20.2064 14.4975 20.251 14.9499 20.4213 15.361C20.5916 15.7722 20.88 16.1236 21.25 16.3708Z" fill="white" stroke="white"/>
<path d="M26.875 7.5H18.125C16.6753 7.5 15.5 8.67525 15.5 10.125V18.875C15.5 20.3247 16.6753 21.5 18.125 21.5H26.875C28.3247 21.5 29.5 20.3247 29.5 18.875V10.125C29.5 8.67525 28.3247 7.5 26.875 7.5Z" stroke="white" stroke-width="1.4" stroke-miterlimit="10"/>
</g>
<path d="M1.23535 36.3271H2.2168V43.5H1.23535V36.3271ZM3.68164 38.2705H4.5166V39.0127C4.764 38.7067 5.02604 38.487 5.30273 38.3535C5.57943 38.2201 5.88704 38.1533 6.22559 38.1533C6.96777 38.1533 7.46908 38.4121 7.72949 38.9297C7.87272 39.2129 7.94434 39.6182 7.94434 40.1455V43.5H7.05078V40.2041C7.05078 39.8851 7.00358 39.6279 6.90918 39.4326C6.75293 39.1071 6.46973 38.9443 6.05957 38.9443C5.85124 38.9443 5.68034 38.9655 5.54688 39.0078C5.30599 39.0794 5.0944 39.2227 4.91211 39.4375C4.76562 39.61 4.6696 39.7891 4.62402 39.9746C4.58171 40.1569 4.56055 40.4189 4.56055 40.7607V43.5H3.68164V38.2705ZM9.77051 41.8594C9.79655 42.1523 9.86979 42.377 9.99023 42.5332C10.2116 42.8164 10.5957 42.958 11.1426 42.958C11.4681 42.958 11.7546 42.888 12.002 42.748C12.2493 42.6048 12.373 42.3851 12.373 42.0889C12.373 41.8643 12.2738 41.6934 12.0752 41.5762C11.9482 41.5046 11.6976 41.4215 11.3232 41.3271L10.625 41.1514C10.179 41.0407 9.85026 40.917 9.63867 40.7803C9.26107 40.5426 9.07227 40.2139 9.07227 39.7939C9.07227 39.2992 9.24967 38.8988 9.60449 38.5928C9.96257 38.2868 10.4427 38.1338 11.0449 38.1338C11.8327 38.1338 12.4007 38.3649 12.749 38.8271C12.9671 39.1201 13.0729 39.4359 13.0664 39.7744H12.2363C12.2201 39.5758 12.1501 39.3952 12.0264 39.2324C11.8245 39.0013 11.4746 38.8857 10.9766 38.8857C10.6445 38.8857 10.3923 38.9492 10.2197 39.0762C10.0505 39.2031 9.96582 39.3708 9.96582 39.5791C9.96582 39.807 10.0781 39.9893 10.3027 40.126C10.4329 40.2074 10.625 40.279 10.8789 40.3408L11.46 40.4824C12.0915 40.6354 12.5146 40.7835 12.7295 40.9268C13.0713 41.1514 13.2422 41.5046 13.2422 41.9863C13.2422 42.4518 13.0648 42.8538 12.71 43.1924C12.3584 43.5309 11.8213 43.7002 11.0986 43.7002C10.3206 43.7002 9.76888 43.5244 9.44336 43.1729C9.12109 42.818 8.94857 42.3802 8.92578 41.8594H9.77051ZM14.4238 36.8105H15.3125V38.2705H16.1475V38.9883H15.3125V42.4014C15.3125 42.5837 15.3743 42.7057 15.498 42.7676C15.5664 42.8034 15.6803 42.8213 15.8398 42.8213C15.8822 42.8213 15.9277 42.8213 15.9766 42.8213C16.0254 42.818 16.0824 42.8132 16.1475 42.8066V43.5C16.0465 43.5293 15.9408 43.5505 15.8301 43.5635C15.7227 43.5765 15.6055 43.583 15.4785 43.583C15.0684 43.583 14.79 43.4788 14.6436 43.2705C14.4971 43.0589 14.4238 42.7855 14.4238 42.4502V38.9883H13.7158V38.2705H14.4238V36.8105ZM17.7051 42.1084C17.7051 42.3623 17.7979 42.5625 17.9834 42.709C18.1689 42.8555 18.3887 42.9287 18.6426 42.9287C18.9518 42.9287 19.2513 42.8571 19.541 42.7139C20.0293 42.4762 20.2734 42.0872 20.2734 41.5469V40.8389C20.166 40.9072 20.0277 40.9642 19.8584 41.0098C19.6891 41.0553 19.5231 41.0879 19.3604 41.1074L18.8281 41.1758C18.5091 41.2181 18.2699 41.2848 18.1104 41.376C17.8402 41.529 17.7051 41.7731 17.7051 42.1084ZM19.834 40.3311C20.0358 40.305 20.1709 40.2204 20.2393 40.0771C20.2783 39.999 20.2979 39.8867 20.2979 39.7402C20.2979 39.4408 20.1904 39.2243 19.9756 39.0908C19.764 38.9541 19.4596 38.8857 19.0625 38.8857C18.6035 38.8857 18.278 39.0094 18.0859 39.2568C17.9785 39.3936 17.9085 39.597 17.876 39.8672H17.0557C17.0719 39.2227 17.2803 38.7751 17.6807 38.5244C18.0843 38.2705 18.5514 38.1436 19.082 38.1436C19.6973 38.1436 20.1969 38.2607 20.5811 38.4951C20.9619 38.7295 21.1523 39.0941 21.1523 39.5889V42.6016C21.1523 42.6927 21.1702 42.766 21.2061 42.8213C21.2451 42.8766 21.3249 42.9043 21.4453 42.9043C21.4844 42.9043 21.5283 42.9027 21.5771 42.8994C21.626 42.8929 21.6781 42.8848 21.7334 42.875V43.5244C21.5967 43.5635 21.4925 43.5879 21.4209 43.5977C21.3493 43.6074 21.2516 43.6123 21.1279 43.6123C20.8252 43.6123 20.6055 43.5049 20.4688 43.29C20.3971 43.1761 20.3467 43.015 20.3174 42.8066C20.1383 43.041 19.8812 43.2445 19.5459 43.417C19.2106 43.5895 18.8411 43.6758 18.4375 43.6758C17.9525 43.6758 17.5553 43.5293 17.2461 43.2363C16.9401 42.9401 16.7871 42.5706 16.7871 42.1279C16.7871 41.6429 16.9385 41.2669 17.2412 41C17.5439 40.7331 17.9411 40.5687 18.4326 40.5068L19.834 40.3311ZM24.4434 38.1777C24.8535 38.1777 25.2116 38.2786 25.5176 38.4805C25.6836 38.5944 25.8529 38.7604 26.0254 38.9785V38.3193H26.8359V43.0752C26.8359 43.7393 26.7383 44.2633 26.543 44.6475C26.1784 45.3571 25.4899 45.7119 24.4775 45.7119C23.9144 45.7119 23.4408 45.585 23.0566 45.3311C22.6725 45.0804 22.4577 44.6865 22.4121 44.1494H23.3057C23.348 44.3838 23.4326 44.5645 23.5596 44.6914C23.7581 44.8867 24.0706 44.9844 24.4971 44.9844C25.1709 44.9844 25.612 44.7467 25.8203 44.2715C25.944 43.9915 26.001 43.4919 25.9912 42.7725C25.8154 43.0394 25.6038 43.238 25.3564 43.3682C25.109 43.4984 24.7819 43.5635 24.375 43.5635C23.8086 43.5635 23.3122 43.3633 22.8857 42.9629C22.4626 42.5592 22.251 41.8936 22.251 40.9658C22.251 40.0902 22.4642 39.4066 22.8906 38.915C23.3203 38.4235 23.8379 38.1777 24.4434 38.1777ZM26.0254 40.8633C26.0254 40.2155 25.8919 39.7354 25.625 39.4229C25.3581 39.1104 25.0179 38.9541 24.6045 38.9541C23.986 38.9541 23.5628 39.2438 23.335 39.8232C23.2145 40.1325 23.1543 40.5378 23.1543 41.0391C23.1543 41.6283 23.2731 42.0775 23.5107 42.3867C23.7516 42.6927 24.0739 42.8457 24.4775 42.8457C25.109 42.8457 25.5534 42.5609 25.8105 41.9912C25.9538 41.6689 26.0254 41.293 26.0254 40.8633ZM28.1885 38.2705H29.0234V39.1738C29.0918 38.998 29.2594 38.7848 29.5264 38.5342C29.7933 38.2803 30.1009 38.1533 30.4492 38.1533C30.4655 38.1533 30.4932 38.1549 30.5322 38.1582C30.5713 38.1615 30.638 38.168 30.7324 38.1777V39.1055C30.6803 39.0957 30.6315 39.0892 30.5859 39.0859C30.5436 39.0827 30.4964 39.0811 30.4443 39.0811C30.0016 39.0811 29.6615 39.2243 29.4238 39.5107C29.1862 39.7939 29.0674 40.1211 29.0674 40.4922V43.5H28.1885V38.2705ZM32.168 42.1084C32.168 42.3623 32.2607 42.5625 32.4463 42.709C32.6318 42.8555 32.8516 42.9287 33.1055 42.9287C33.4147 42.9287 33.7142 42.8571 34.0039 42.7139C34.4922 42.4762 34.7363 42.0872 34.7363 41.5469V40.8389C34.6289 40.9072 34.4906 40.9642 34.3213 41.0098C34.152 41.0553 33.986 41.0879 33.8232 41.1074L33.291 41.1758C32.972 41.2181 32.7327 41.2848 32.5732 41.376C32.3031 41.529 32.168 41.7731 32.168 42.1084ZM34.2969 40.3311C34.4987 40.305 34.6338 40.2204 34.7021 40.0771C34.7412 39.999 34.7607 39.8867 34.7607 39.7402C34.7607 39.4408 34.6533 39.2243 34.4385 39.0908C34.2269 38.9541 33.9225 38.8857 33.5254 38.8857C33.0664 38.8857 32.7409 39.0094 32.5488 39.2568C32.4414 39.3936 32.3714 39.597 32.3389 39.8672H31.5186C31.5348 39.2227 31.7432 38.7751 32.1436 38.5244C32.5472 38.2705 33.0143 38.1436 33.5449 38.1436C34.1602 38.1436 34.6598 38.2607 35.0439 38.4951C35.4248 38.7295 35.6152 39.0941 35.6152 39.5889V42.6016C35.6152 42.6927 35.6331 42.766 35.6689 42.8213C35.708 42.8766 35.7878 42.9043 35.9082 42.9043C35.9473 42.9043 35.9912 42.9027 36.04 42.8994C36.0889 42.8929 36.141 42.8848 36.1963 42.875V43.5244C36.0596 43.5635 35.9554 43.5879 35.8838 43.5977C35.8122 43.6074 35.7145 43.6123 35.5908 43.6123C35.2881 43.6123 35.0684 43.5049 34.9316 43.29C34.86 43.1761 34.8096 43.015 34.7803 42.8066C34.6012 43.041 34.3441 43.2445 34.0088 43.417C33.6735 43.5895 33.304 43.6758 32.9004 43.6758C32.4154 43.6758 32.0182 43.5293 31.709 43.2363C31.403 42.9401 31.25 42.5706 31.25 42.1279C31.25 41.6429 31.4014 41.2669 31.7041 41C32.0068 40.7331 32.404 40.5687 32.8955 40.5068L34.2969 40.3311ZM37.0605 38.2705H37.9297V39.0127C38.138 38.7555 38.3268 38.5684 38.4961 38.4512C38.7858 38.2526 39.1146 38.1533 39.4824 38.1533C39.8991 38.1533 40.2344 38.2559 40.4883 38.4609C40.6315 38.5781 40.7617 38.7507 40.8789 38.9785C41.0742 38.6986 41.3037 38.4919 41.5674 38.3584C41.8311 38.2217 42.1273 38.1533 42.4561 38.1533C43.1592 38.1533 43.6377 38.4072 43.8916 38.915C44.0283 39.1885 44.0967 39.5563 44.0967 40.0186V43.5H43.1836V39.8672C43.1836 39.5189 43.0957 39.2796 42.9199 39.1494C42.7474 39.0192 42.5358 38.9541 42.2852 38.9541C41.9401 38.9541 41.6423 39.0697 41.3916 39.3008C41.1442 39.5319 41.0205 39.9176 41.0205 40.458V43.5H40.127V40.0869C40.127 39.7321 40.0846 39.4733 40 39.3105C39.8665 39.0664 39.6175 38.9443 39.2529 38.9443C38.9209 38.9443 38.6182 39.0729 38.3447 39.3301C38.0745 39.5872 37.9395 40.0527 37.9395 40.7266V43.5H37.0605V38.2705Z" fill="#002D84"/>
<defs>
<clipPath id="clip0_2119_1020">
<rect width="28" height="28" fill="white" transform="translate(8.5 0.5)"/>
</clipPath>
</defs>
</svg>
