<svg width="112" height="28" viewBox="0 0 112 28" fill="none" xmlns="http://www.w3.org/2000/svg">
<path d="M48.1037 21.0947H45.9101V12.4351C45.9101 11.7259 45.9534 10.8581 46.0402 9.83167H46.003C45.8667 10.4164 45.7459 10.8364 45.6405 11.0914L41.6622 21.0947H40.1378L36.1502 11.1661C36.0386 10.8737 35.9209 10.4289 35.797 9.83167H35.7598C35.8094 10.3667 35.8341 11.2407 35.8341 12.4538V21.0947H33.7892V7.71344H36.9031L40.4074 16.6249C40.6738 17.3092 40.8473 17.8194 40.9279 18.1553H40.9744C41.2036 17.4523 41.3895 16.9298 41.5321 16.5876L45.1014 7.71344H48.1037V21.0947Z" fill="#090909"/>
<path d="M51.8593 9.53307C51.5061 9.53307 51.2025 9.41798 50.9484 9.1878C50.7005 8.95763 50.5766 8.66525 50.5766 8.31065C50.5766 7.95606 50.7005 7.66056 50.9484 7.42417C51.2025 7.18777 51.5061 7.06957 51.8593 7.06957C52.2249 7.06957 52.5348 7.18777 52.7888 7.42417C53.0429 7.66056 53.1699 7.95606 53.1699 8.31065C53.1699 8.64658 53.0429 8.93586 52.7888 9.17847C52.5348 9.41487 52.2249 9.53307 51.8593 9.53307ZM52.9283 21.0947H50.7718V11.5393H52.9283V21.0947Z" fill="#090909"/>
<path d="M62.1866 20.6561C61.4244 21.0978 60.5228 21.3186 59.4817 21.3186C58.0688 21.3186 56.9286 20.877 56.0611 19.9936C55.1936 19.104 54.7598 17.9531 54.7598 16.541C54.7598 14.9671 55.2245 13.7042 56.1541 12.7524C57.0898 11.7944 58.3384 11.3154 59.9 11.3154C60.7675 11.3154 61.5328 11.4678 62.1959 11.7726V13.7882C61.5328 13.2905 60.8264 13.0417 60.0766 13.0417C59.1657 13.0417 58.419 13.3527 57.8365 13.9748C57.254 14.5907 56.9627 15.3994 56.9627 16.401C56.9627 17.3901 57.2354 18.1708 57.7807 18.7432C58.3322 19.3155 59.0696 19.6017 59.9929 19.6017C60.7675 19.6017 61.4988 19.3248 62.1866 18.7712V20.6561Z" fill="#090909"/>
<path d="M69.4743 13.6016C69.2141 13.3963 68.8392 13.2936 68.3496 13.2936C67.7114 13.2936 67.1785 13.5829 66.7509 14.1614C66.3233 14.74 66.1095 15.5269 66.1095 16.5223V21.0947H63.953V11.5393H66.1095V13.5082H66.1467C66.3574 12.8364 66.6796 12.3138 67.1134 11.9406C67.5534 11.5611 68.0429 11.3714 68.582 11.3714C68.9724 11.3714 69.2699 11.4305 69.4743 11.5487V13.6016Z" fill="#090909"/>
<path d="M74.838 21.3186C73.3694 21.3186 72.1951 20.8738 71.3152 19.9843C70.4414 19.0884 70.0045 17.9033 70.0045 16.429C70.0045 14.824 70.46 13.5705 71.3709 12.6684C72.288 11.7664 73.5212 11.3154 75.0704 11.3154C76.5576 11.3154 77.7164 11.7539 78.5468 12.6311C79.3771 13.5082 79.7923 14.7244 79.7923 16.2797C79.7923 17.8038 79.3431 19.0262 78.4445 19.9469C77.5522 20.8614 76.35 21.3186 74.838 21.3186ZM74.9403 13.0417C74.0975 13.0417 73.4314 13.3372 72.9418 13.9282C72.4523 14.5192 72.2075 15.3341 72.2075 16.373C72.2075 17.3746 72.4554 18.1646 72.9511 18.7432C73.4468 19.3155 74.1099 19.6017 74.9403 19.6017C75.7892 19.6017 76.4399 19.3186 76.8922 18.7525C77.3508 18.1864 77.5801 17.3808 77.5801 16.3357C77.5801 15.2843 77.3508 14.4725 76.8922 13.9002C76.4399 13.3278 75.7892 13.0417 74.9403 13.0417Z" fill="#090909"/>
<path d="M81.0197 20.7961V18.7898C81.8252 19.4057 82.7145 19.7136 83.6874 19.7136C84.9887 19.7136 85.6393 19.3279 85.6393 18.5565C85.6393 18.3388 85.5836 18.1553 85.472 18.006C85.3605 17.8505 85.2087 17.7136 85.0166 17.5954C84.8307 17.4772 84.6076 17.3715 84.3473 17.2781C84.0932 17.1848 83.8082 17.0791 83.4922 16.9609C83.1018 16.8053 82.7485 16.6405 82.4325 16.4663C82.1227 16.2921 81.8624 16.0962 81.6517 15.8784C81.4472 15.6545 81.2923 15.4025 81.187 15.1226C81.0816 14.8426 81.0289 14.516 81.0289 14.1428C81.0289 13.6824 81.1374 13.2781 81.3543 12.9297C81.5712 12.5751 81.8624 12.2796 82.228 12.0432C82.5936 11.8006 83.0088 11.6202 83.4736 11.502C83.9383 11.3776 84.4186 11.3154 84.9143 11.3154C85.7943 11.3154 86.5812 11.4491 87.2753 11.7166V13.6109C86.606 13.1505 85.8376 12.9204 84.9701 12.9204C84.6974 12.9204 84.4496 12.9484 84.2265 13.0044C84.0096 13.0603 83.8237 13.1381 83.6688 13.2376C83.5138 13.3372 83.393 13.4585 83.3063 13.6016C83.2195 13.7384 83.1761 13.8908 83.1761 14.0588C83.1761 14.2641 83.2195 14.4383 83.3063 14.5814C83.393 14.7244 83.52 14.852 83.6874 14.964C83.8609 15.0697 84.0654 15.1692 84.3008 15.2626C84.5425 15.3496 84.8183 15.4461 85.1281 15.5518C85.5371 15.7198 85.9027 15.8909 86.2249 16.0651C86.5534 16.2392 86.8322 16.4383 87.0615 16.6623C87.2908 16.88 87.4674 17.1351 87.5913 17.4274C87.7152 17.7136 87.7772 18.0558 87.7772 18.4539C87.7772 18.9391 87.6657 19.3622 87.4426 19.723C87.2195 20.0838 86.9221 20.3824 86.5503 20.6188C86.1784 20.8552 85.7478 21.0294 85.2582 21.1413C84.7749 21.2595 84.2637 21.3186 83.7245 21.3186C82.6835 21.3186 81.7819 21.1445 81.0197 20.7961Z" fill="#090909"/>
<path d="M93.6707 21.3186C92.2021 21.3186 91.0278 20.8738 90.1478 19.9843C89.2741 19.0884 88.8372 17.9033 88.8372 16.429C88.8372 14.824 89.2927 13.5705 90.2036 12.6684C91.1207 11.7664 92.3539 11.3154 93.9031 11.3154C95.3903 11.3154 96.5491 11.7539 97.3795 12.6311C98.2098 13.5082 98.625 14.7244 98.625 16.2797C98.625 17.8038 98.1757 19.0262 97.2772 19.9469C96.3849 20.8614 95.1827 21.3186 93.6707 21.3186ZM93.7729 13.0417C92.9302 13.0417 92.264 13.3372 91.7745 13.9282C91.2849 14.5192 91.0402 15.3341 91.0402 16.373C91.0402 17.3746 91.288 18.1646 91.7838 18.7432C92.2795 19.3155 92.9426 19.6017 93.7729 19.6017C94.6219 19.6017 95.2726 19.3186 95.7249 18.7525C96.1835 18.1864 96.4128 17.3808 96.4128 16.3357C96.4128 15.2843 96.1835 14.4725 95.7249 13.9002C95.2726 13.3278 94.6219 13.0417 93.7729 13.0417Z" fill="#090909"/>
<path d="M105.829 8.7119C105.538 8.54394 105.206 8.45995 104.835 8.45995C103.787 8.45995 103.264 9.05405 103.264 10.2423V11.5393H105.476V13.2376H103.273V21.0947H101.116V13.2376H99.4898V11.5393H101.116V9.99031C101.116 8.98251 101.445 8.18934 102.102 7.6108C102.759 7.02603 103.58 6.73364 104.565 6.73364C105.098 6.73364 105.519 6.79274 105.829 6.91094V8.7119Z" fill="#090909"/>
<path d="M111.648 20.992C111.227 21.2036 110.672 21.3093 109.984 21.3093C108.138 21.3093 107.214 20.4197 107.214 18.6405V13.2376H105.625V11.5393H107.214V9.32778L109.371 8.7119V11.5393H111.648V13.2376H109.371V18.0153C109.371 18.5814 109.473 18.9858 109.678 19.2284C109.882 19.471 110.223 19.5923 110.7 19.5923C111.066 19.5923 111.382 19.4866 111.648 19.2751V20.992Z" fill="#090909"/>
<rect x="0.0302124" y="0.970825" width="12.4143" height="12.4628" fill="#F15021"/>
<rect x="0.0302124" y="14.5664" width="12.4143" height="12.4628" fill="#00A3EE"/>
<rect x="13.5732" y="0.970825" width="12.4143" height="12.4628" fill="#7EB900"/>
<rect x="13.5732" y="14.5664" width="12.4143" height="12.4628" fill="#FFB800"/>
</svg>
