<svg width="63" height="32" viewBox="0 0 63 32" fill="none" xmlns="http://www.w3.org/2000/svg">
<path d="M12.1112 3.39798C13.7069 2.48339 15.673 2.48339 17.2687 3.39798L24.3942 7.48195C25.9899 8.39654 26.9729 10.0868 26.9729 11.916V20.0839C26.9729 21.9131 25.9899 23.6034 24.3942 24.518L17.2687 28.6019C15.673 29.5164 13.7069 29.5164 12.1112 28.6019L4.98574 24.518C3.39 23.6034 2.40698 21.9131 2.40698 20.0839V11.916C2.40698 10.0868 3.39 8.39654 4.98574 7.48195L12.1112 3.39798Z" stroke="#1B1B1B" stroke-width="2" stroke-linejoin="round"/>
<path d="M14.69 3.52002V6.40002M3.87256 9.72002L6.27644 11.0978M3.87256 22.12L6.27644 20.7422M14.69 25.6V28.16M23.1035 20.7423L25.5073 22.12M23.1035 11.0978L25.5073 9.72002M14.69 16.2581V20.48M14.69 16.2581L18.8804 13.76M14.69 16.2581L10.4995 13.76M14.0453 10.2895C14.4442 10.0609 14.9357 10.0609 15.3346 10.2895L19.3493 12.5905C19.7482 12.8192 19.994 13.2417 19.994 13.699V18.301C19.994 18.7583 19.7482 19.1809 19.3493 19.4095L15.3346 21.7105C14.9357 21.9392 14.4442 21.9392 14.0453 21.7105L10.0306 19.4095C9.63169 19.1809 9.38594 18.7583 9.38594 18.301V13.699C9.38594 13.2417 9.63169 12.8192 10.0306 12.5905L14.0453 10.2895Z" stroke="#1B1B1B" stroke-width="2" stroke-linecap="round"/>
<path d="M46.8077 19.8077L50.0237 10H52.3496L47.9665 22H46.3963L46.8077 19.8077ZM43.8353 10L47.026 19.8077L47.4627 22H45.8841L41.5178 10H43.8353Z" fill="black"/>
<path d="M53.7183 10H58.0426C58.9719 10 59.764 10.1374 60.4189 10.4121C61.0739 10.6868 61.5749 11.0934 61.9219 11.6319C62.2746 12.1648 62.4509 12.8242 62.4509 13.6099C62.4509 14.2088 62.339 14.7363 62.1151 15.1923C61.8911 15.6484 61.5749 16.033 61.1662 16.3462C60.7576 16.6538 60.2706 16.8929 59.7052 17.0632L59.067 17.3681H55.1793L55.1625 15.728H58.0762C58.58 15.728 58.9998 15.6401 59.3357 15.4643C59.6716 15.2885 59.9235 15.0495 60.0914 14.7473C60.265 14.4396 60.3517 14.0934 60.3517 13.7088C60.3517 13.2912 60.2678 12.9286 60.0998 12.6209C59.9375 12.3077 59.6856 12.0687 59.3441 11.9038C59.0026 11.7335 58.5688 11.6484 58.0426 11.6484H55.8259V22H53.7183V10ZM60.696 22L57.8243 16.6099L60.0327 16.6016L62.9463 21.8929V22H60.696Z" fill="black"/>
</svg>
