<svg width="46" height="46" viewBox="0 0 46 46" fill="none" xmlns="http://www.w3.org/2000/svg">
<g clip-path="url(#clip0_2119_1009)">
<path d="M23 1.08339C20.5669 1.08363 18.1796 1.74555 16.0937 2.9983C14.0078 4.25105 12.3018 6.04746 11.1584 8.19525C10.015 10.343 9.47718 12.7613 9.60254 15.1913C9.72789 17.6212 10.5117 19.9713 11.87 21.9901L9.58337 27.9167L15.685 25.7351C17.435 26.8773 19.4275 27.595 21.5039 27.8309C23.5802 28.0669 25.683 27.8145 27.6446 27.094C29.6062 26.3735 31.3723 25.2047 32.8023 23.6808C34.2323 22.157 35.2865 20.3201 35.881 18.3167C36.4754 16.3134 36.5937 14.1988 36.2264 12.1416C35.859 10.0844 35.0162 8.14148 33.7651 6.46765C32.514 4.79381 30.8893 3.43536 29.0203 2.50057C27.1513 1.56578 25.0898 1.08049 23 1.08339Z" fill="#002D84" stroke="white" stroke-linecap="round" stroke-linejoin="round"/>
<path d="M20.0834 17.4167C21.6001 18.9334 24.9484 20.9167 26.5001 20.9167C27.1807 20.9237 27.8429 20.6953 28.3744 20.2701C28.906 19.8448 29.2742 19.249 29.4167 18.5834V17.4167C29.4167 17.4167 27.9817 16.7167 27.0834 16.25C26.1851 15.7834 24.7501 17.4167 24.7501 17.4167C23.6582 17.061 22.6611 16.4627 21.8334 15.6667C21.0374 14.839 20.4391 13.8419 20.0834 12.75C20.0834 12.75 21.7167 11.315 21.2501 10.4167C20.7834 9.51837 20.0834 8.08337 20.0834 8.08337H18.9167C18.2511 8.22593 17.6553 8.59416 17.2301 9.12569C16.8048 9.65722 16.5764 10.3194 16.5834 11C16.5834 12.5517 18.5667 15.9 20.0834 17.4167Z" fill="white"/>
</g>
<path d="M1.70605 36.3271L3.05859 42.1621L4.67969 36.3271H5.73438L7.35547 42.1621L8.70801 36.3271H9.77246L7.8877 43.5H6.86719L5.21191 37.5527L3.54688 43.5H2.52637L0.651367 36.3271H1.70605ZM10.5586 36.3027H11.4375V38.9785C11.6458 38.7148 11.833 38.5293 11.999 38.4219C12.2822 38.2363 12.6354 38.1436 13.0586 38.1436C13.8171 38.1436 14.3314 38.4089 14.6016 38.9395C14.748 39.2292 14.8213 39.6312 14.8213 40.1455V43.5H13.918V40.2041C13.918 39.82 13.8691 39.5384 13.7715 39.3594C13.612 39.0729 13.3125 38.9297 12.873 38.9297C12.5085 38.9297 12.1781 39.055 11.8818 39.3057C11.5856 39.5563 11.4375 40.0299 11.4375 40.7266V43.5H10.5586V36.3027ZM16.7988 42.1084C16.7988 42.3623 16.8916 42.5625 17.0771 42.709C17.2627 42.8555 17.4824 42.9287 17.7363 42.9287C18.0456 42.9287 18.3451 42.8571 18.6348 42.7139C19.123 42.4762 19.3672 42.0872 19.3672 41.5469V40.8389C19.2598 40.9072 19.1214 40.9642 18.9521 41.0098C18.7829 41.0553 18.6169 41.0879 18.4541 41.1074L17.9219 41.1758C17.6029 41.2181 17.3636 41.2848 17.2041 41.376C16.9339 41.529 16.7988 41.7731 16.7988 42.1084ZM18.9277 40.3311C19.1296 40.305 19.2646 40.2204 19.333 40.0771C19.3721 39.999 19.3916 39.8867 19.3916 39.7402C19.3916 39.4408 19.2842 39.2243 19.0693 39.0908C18.8577 38.9541 18.5534 38.8857 18.1562 38.8857C17.6973 38.8857 17.3717 39.0094 17.1797 39.2568C17.0723 39.3936 17.0023 39.597 16.9697 39.8672H16.1494C16.1657 39.2227 16.374 38.7751 16.7744 38.5244C17.1781 38.2705 17.6452 38.1436 18.1758 38.1436C18.791 38.1436 19.2907 38.2607 19.6748 38.4951C20.0557 38.7295 20.2461 39.0941 20.2461 39.5889V42.6016C20.2461 42.6927 20.264 42.766 20.2998 42.8213C20.3389 42.8766 20.4186 42.9043 20.5391 42.9043C20.5781 42.9043 20.6221 42.9027 20.6709 42.8994C20.7197 42.8929 20.7718 42.8848 20.8271 42.875V43.5244C20.6904 43.5635 20.5863 43.5879 20.5146 43.5977C20.443 43.6074 20.3454 43.6123 20.2217 43.6123C19.9189 43.6123 19.6992 43.5049 19.5625 43.29C19.4909 43.1761 19.4404 43.015 19.4111 42.8066C19.2321 43.041 18.9749 43.2445 18.6396 43.417C18.3044 43.5895 17.9349 43.6758 17.5312 43.6758C17.0462 43.6758 16.6491 43.5293 16.3398 43.2363C16.0339 42.9401 15.8809 42.5706 15.8809 42.1279C15.8809 41.6429 16.0322 41.2669 16.335 41C16.6377 40.7331 17.0348 40.5687 17.5264 40.5068L18.9277 40.3311ZM21.8672 36.8105H22.7559V38.2705H23.5908V38.9883H22.7559V42.4014C22.7559 42.5837 22.8177 42.7057 22.9414 42.7676C23.0098 42.8034 23.1237 42.8213 23.2832 42.8213C23.3255 42.8213 23.3711 42.8213 23.4199 42.8213C23.4688 42.818 23.5257 42.8132 23.5908 42.8066V43.5C23.4899 43.5293 23.3841 43.5505 23.2734 43.5635C23.166 43.5765 23.0488 43.583 22.9219 43.583C22.5117 43.583 22.2334 43.4788 22.0869 43.2705C21.9404 43.0589 21.8672 42.7855 21.8672 42.4502V38.9883H21.1592V38.2705H21.8672V36.8105ZM24.9971 41.8594C25.0231 42.1523 25.0964 42.377 25.2168 42.5332C25.4382 42.8164 25.8223 42.958 26.3691 42.958C26.6947 42.958 26.9811 42.888 27.2285 42.748C27.4759 42.6048 27.5996 42.3851 27.5996 42.0889C27.5996 41.8643 27.5003 41.6934 27.3018 41.5762C27.1748 41.5046 26.9242 41.4215 26.5498 41.3271L25.8516 41.1514C25.4056 41.0407 25.0768 40.917 24.8652 40.7803C24.4876 40.5426 24.2988 40.2139 24.2988 39.7939C24.2988 39.2992 24.4762 38.8988 24.8311 38.5928C25.1891 38.2868 25.6693 38.1338 26.2715 38.1338C27.0592 38.1338 27.6273 38.3649 27.9756 38.8271C28.1937 39.1201 28.2995 39.4359 28.293 39.7744H27.4629C27.4466 39.5758 27.3766 39.3952 27.2529 39.2324C27.0511 39.0013 26.7012 38.8857 26.2031 38.8857C25.8711 38.8857 25.6188 38.9492 25.4463 39.0762C25.277 39.2031 25.1924 39.3708 25.1924 39.5791C25.1924 39.807 25.3047 39.9893 25.5293 40.126C25.6595 40.2074 25.8516 40.279 26.1055 40.3408L26.6865 40.4824C27.318 40.6354 27.7412 40.7835 27.9561 40.9268C28.2979 41.1514 28.4688 41.5046 28.4688 41.9863C28.4688 42.4518 28.2913 42.8538 27.9365 43.1924C27.585 43.5309 27.0479 43.7002 26.3252 43.7002C25.5472 43.7002 24.9954 43.5244 24.6699 43.1729C24.3477 42.818 24.1751 42.3802 24.1523 41.8594H24.9971ZM30.1484 42.1084C30.1484 42.3623 30.2412 42.5625 30.4268 42.709C30.6123 42.8555 30.832 42.9287 31.0859 42.9287C31.3952 42.9287 31.6947 42.8571 31.9844 42.7139C32.4727 42.4762 32.7168 42.0872 32.7168 41.5469V40.8389C32.6094 40.9072 32.471 40.9642 32.3018 41.0098C32.1325 41.0553 31.9665 41.0879 31.8037 41.1074L31.2715 41.1758C30.9525 41.2181 30.7132 41.2848 30.5537 41.376C30.2835 41.529 30.1484 41.7731 30.1484 42.1084ZM32.2773 40.3311C32.4792 40.305 32.6143 40.2204 32.6826 40.0771C32.7217 39.999 32.7412 39.8867 32.7412 39.7402C32.7412 39.4408 32.6338 39.2243 32.4189 39.0908C32.2074 38.9541 31.903 38.8857 31.5059 38.8857C31.0469 38.8857 30.7214 39.0094 30.5293 39.2568C30.4219 39.3936 30.3519 39.597 30.3193 39.8672H29.499C29.5153 39.2227 29.7236 38.7751 30.124 38.5244C30.5277 38.2705 30.9948 38.1436 31.5254 38.1436C32.1406 38.1436 32.6403 38.2607 33.0244 38.4951C33.4053 38.7295 33.5957 39.0941 33.5957 39.5889V42.6016C33.5957 42.6927 33.6136 42.766 33.6494 42.8213C33.6885 42.8766 33.7682 42.9043 33.8887 42.9043C33.9277 42.9043 33.9717 42.9027 34.0205 42.8994C34.0693 42.8929 34.1214 42.8848 34.1768 42.875V43.5244C34.04 43.5635 33.9359 43.5879 33.8643 43.5977C33.7926 43.6074 33.695 43.6123 33.5713 43.6123C33.2686 43.6123 33.0488 43.5049 32.9121 43.29C32.8405 43.1761 32.79 43.015 32.7607 42.8066C32.5817 43.041 32.3245 43.2445 31.9893 43.417C31.654 43.5895 31.2845 43.6758 30.8809 43.6758C30.3958 43.6758 29.9987 43.5293 29.6895 43.2363C29.3835 42.9401 29.2305 42.5706 29.2305 42.1279C29.2305 41.6429 29.3818 41.2669 29.6846 41C29.9873 40.7331 30.3844 40.5687 30.876 40.5068L32.2773 40.3311ZM37.248 42.9092C37.6582 42.9092 37.9984 42.7383 38.2686 42.3965C38.542 42.0514 38.6787 41.5371 38.6787 40.8535C38.6787 40.4368 38.6185 40.0788 38.498 39.7793C38.2702 39.2031 37.8535 38.915 37.248 38.915C36.6393 38.915 36.2227 39.2194 35.998 39.8281C35.8776 40.1536 35.8174 40.5671 35.8174 41.0684C35.8174 41.472 35.8776 41.8154 35.998 42.0986C36.2259 42.639 36.6426 42.9092 37.248 42.9092ZM34.9727 38.2949H35.8271V38.9883C36.0029 38.7507 36.195 38.5667 36.4033 38.4365C36.6995 38.2412 37.0479 38.1436 37.4482 38.1436C38.0407 38.1436 38.5436 38.3714 38.957 38.8271C39.3704 39.2796 39.5771 39.9274 39.5771 40.7705C39.5771 41.9098 39.2793 42.7236 38.6836 43.2119C38.306 43.5212 37.8665 43.6758 37.3652 43.6758C36.9714 43.6758 36.641 43.5895 36.374 43.417C36.2178 43.3193 36.0436 43.1517 35.8516 42.9141V45.585H34.9727V38.2949ZM42.8145 42.9092C43.2246 42.9092 43.5648 42.7383 43.835 42.3965C44.1084 42.0514 44.2451 41.5371 44.2451 40.8535C44.2451 40.4368 44.1849 40.0788 44.0645 39.7793C43.8366 39.2031 43.4199 38.915 42.8145 38.915C42.2057 38.915 41.7891 39.2194 41.5645 39.8281C41.444 40.1536 41.3838 40.5671 41.3838 41.0684C41.3838 41.472 41.444 41.8154 41.5645 42.0986C41.7923 42.639 42.209 42.9092 42.8145 42.9092ZM40.5391 38.2949H41.3936V38.9883C41.5693 38.7507 41.7614 38.5667 41.9697 38.4365C42.266 38.2412 42.6143 38.1436 43.0146 38.1436C43.6071 38.1436 44.11 38.3714 44.5234 38.8271C44.9368 39.2796 45.1436 39.9274 45.1436 40.7705C45.1436 41.9098 44.8457 42.7236 44.25 43.2119C43.8724 43.5212 43.4329 43.6758 42.9316 43.6758C42.5378 43.6758 42.2074 43.5895 41.9404 43.417C41.7842 43.3193 41.61 43.1517 41.418 42.9141V45.585H40.5391V38.2949Z" fill="#002D84"/>
<defs>
<clipPath id="clip0_2119_1009">
<rect width="28" height="28" fill="white" transform="translate(9 0.5)"/>
</clipPath>
</defs>
</svg>
