<svg width="28" height="44" viewBox="0 0 28 44" fill="none" xmlns="http://www.w3.org/2000/svg">
<g clip-path="url(#clip0_2119_1056)">
<mask id="mask0_2119_1056" style="mask-type:luminance" maskUnits="userSpaceOnUse" x="0" y="0" width="28" height="29">
<path d="M28 0.5H0V28.5H28V0.5Z" fill="white"/>
</mask>
<g mask="url(#mask0_2119_1056)">
<path d="M24.7188 0.5H3.28125C1.46907 0.5 0 1.96907 0 3.78125V25.2188C0 27.0309 1.46907 28.5 3.28125 28.5H24.7188C26.5309 28.5 28 27.0309 28 25.2188V3.78125C28 1.96907 26.5309 0.5 24.7188 0.5Z" fill="#002D84"/>
<path d="M12.7103 16.7371L7.63941 22.5312H6.07186L12.1101 15.6299L12.3795 15.3219L12.1309 14.9969L5.60911 6.46875H10.3213L14.2951 11.7225L14.6657 12.2125L15.0702 11.7501L19.6904 6.46875H21.2562L15.6581 12.867L15.3901 13.1733L15.6356 13.4979L22.4685 22.5312H17.8958L13.4837 16.7626L13.1126 16.2774L12.7103 16.7371ZM18.0505 21.6025L18.2006 21.7987H18.4476H20.0515H21.0566L20.4503 20.9971L10.0973 7.30864L9.94725 7.11025H9.69851H7.97739H6.96544L7.58024 7.91402L18.0505 21.6025Z" fill="white" stroke="white"/>
</g>
</g>
<path d="M12.042 43.5H10.8701L13.4385 39.8232L11.0312 36.3271H12.2471L14.0781 39.0713L15.8945 36.3271H17.0518L14.6445 39.8232L17.1689 43.5H15.9629L14.0293 40.5508L12.042 43.5Z" fill="#002D84"/>
<defs>
<clipPath id="clip0_2119_1056">
<rect y="0.5" width="28" height="28" rx="14" fill="white"/>
</clipPath>
</defs>
</svg>
