<svg width="117" height="30" viewBox="0 0 117 30" fill="none" xmlns="http://www.w3.org/2000/svg">
<path d="M19.2802 15.9057C19.3084 13.7069 20.4847 11.6264 22.3507 10.4747C21.1735 8.78689 19.2018 7.71678 17.1504 7.65235C14.9624 7.42179 12.8413 8.96671 11.7263 8.96671C10.5898 8.96671 8.87316 7.67524 7.02462 7.71342C4.61514 7.79157 2.36889 9.16682 1.19662 11.2816C-1.32329 15.6614 0.556337 22.0984 2.9702 25.6387C4.17791 27.3723 5.58937 29.3088 7.43624 29.2401C9.24351 29.1649 9.9185 28.0832 12.1 28.0832C14.2613 28.0832 14.8946 29.2401 16.7789 29.1965C18.7182 29.1649 19.9401 27.4552 21.1054 25.7051C21.9731 24.4699 22.6409 23.1046 23.0838 21.66C20.8048 20.6923 19.2829 18.3899 19.2802 15.9057Z" fill="#090909"/>
<path d="M15.721 5.32404C16.7783 4.04974 17.2993 2.41184 17.1731 0.758179C15.5577 0.928512 14.0655 1.7036 12.9938 2.92901C11.9459 4.1263 11.4005 5.73538 11.5036 7.32584C13.1196 7.34254 14.7083 6.58846 15.721 5.32404Z" fill="#090909"/>
<path d="M83.7405 8.92138V11.5859H82.0769V13.3332H83.7405V19.2704C83.7405 21.2977 84.654 22.1086 86.9524 22.1086C87.3562 22.1086 87.7409 22.0603 88.0775 22.0024V20.2744C87.789 20.3033 87.6063 20.3226 87.2889 20.3226C86.26 20.3226 85.808 19.8399 85.808 18.7394V13.3332H88.0775V11.5859H85.808V8.92138H83.7405Z" fill="#090909"/>
<path d="M93.9323 22.2534C96.9903 22.2534 98.8655 20.1971 98.8655 16.7893C98.8655 13.4008 96.9807 11.3349 93.9323 11.3349C90.8743 11.3349 88.9895 13.4008 88.9895 16.7893C88.9895 20.1971 90.8647 22.2534 93.9323 22.2534ZM93.9323 20.4095C92.134 20.4095 91.1243 19.0869 91.1243 16.7893C91.1243 14.511 92.134 13.1788 93.9323 13.1788C95.7209 13.1788 96.7403 14.511 96.7403 16.7893C96.7403 19.0773 95.7209 20.4095 93.9323 20.4095Z" fill="#090909"/>
<path d="M100.47 22.0507H102.537V15.8432C102.537 14.3662 103.643 13.3718 105.211 13.3718C105.576 13.3718 106.192 13.4394 106.365 13.4973V11.4507C106.144 11.3928 105.749 11.3638 105.442 11.3638C104.076 11.3638 102.912 12.1168 102.614 13.1498H102.46V11.5376H100.47V22.0507Z" fill="#090909"/>
<path d="M111.498 13.1015C113.027 13.1015 114.027 14.1731 114.076 15.8239H108.787C108.902 14.1828 109.969 13.1015 111.498 13.1015ZM114.066 19.2124C113.681 20.033 112.825 20.4868 111.575 20.4868C109.921 20.4868 108.854 19.3186 108.787 17.4747V17.3589H116.182V16.6348C116.182 13.3332 114.422 11.3349 111.508 11.3349C108.556 11.3349 106.681 13.4684 106.681 16.8279C106.681 20.1875 108.517 22.2534 111.518 22.2534C113.912 22.2534 115.585 21.0949 116.056 19.2124H114.066Z" fill="#090909"/>
<path d="M70.182 18.1684C70.3415 20.7499 72.4844 22.4009 75.6739 22.4009C79.0826 22.4009 81.2156 20.6699 81.2156 17.9082C81.2156 15.7369 79.9996 14.5362 77.0493 13.8458L75.4646 13.4555C73.5908 13.0153 72.8333 12.4249 72.8333 11.3943C72.8333 10.0935 74.0094 9.24303 75.7736 9.24303C77.448 9.24303 78.6042 10.0735 78.8135 11.4043H80.9863C80.8568 8.97286 78.7238 7.26184 75.8035 7.26184C72.6638 7.26184 70.5707 8.97286 70.5707 11.5444C70.5707 13.6657 71.7568 14.9264 74.3582 15.5368L76.2121 15.9871C78.1158 16.4373 78.953 17.0977 78.953 18.1984C78.953 19.4791 77.6374 20.4097 75.8433 20.4097C73.9197 20.4097 72.5841 19.5392 72.3947 18.1684H70.182Z" fill="#090909"/>
<path d="M48.7646 11.3638C47.3414 11.3638 46.1105 12.0782 45.4758 13.2753H45.322V11.5376H43.3314V25.5454H45.3989V20.4578H45.5624C46.1105 21.568 47.2933 22.2245 48.7839 22.2245C51.4284 22.2245 53.1112 20.1296 53.1112 16.7893C53.1112 13.4491 51.4284 11.3638 48.7646 11.3638ZM48.178 20.3613C46.4471 20.3613 45.3604 18.9904 45.3604 16.799C45.3604 14.5979 46.4471 13.227 48.1877 13.227C49.9378 13.227 50.986 14.5689 50.986 16.7893C50.986 19.0194 49.9378 20.3613 48.178 20.3613Z" fill="#090909"/>
<path d="M60.3458 11.3638C58.9226 11.3638 57.6917 12.0782 57.057 13.2753H56.9032V11.5376H54.9126V25.5454H56.9801V20.4578H57.1436C57.6917 21.568 58.8745 22.2245 60.365 22.2245C63.0096 22.2245 64.6924 20.1296 64.6924 16.7893C64.6924 13.4491 63.0096 11.3638 60.3458 11.3638ZM59.7592 20.3613C58.0283 20.3613 56.9416 18.9904 56.9416 16.799C56.9416 14.5979 58.0283 13.227 59.7688 13.227C61.519 13.227 62.5672 14.5689 62.5672 16.7893C62.5672 19.0194 61.519 20.3613 59.7592 20.3613Z" fill="#090909"/>
<path d="M39.6219 22.0507H41.9941L36.8012 7.61205H34.3991L29.2063 22.0507H31.4987L32.8243 18.2184H38.3062L39.6219 22.0507ZM35.4856 10.2336H35.655L37.7381 16.3373H33.3925L35.4856 10.2336Z" fill="#090909"/>
</svg>
