<svg width="113" height="30" viewBox="0 0 113 30" fill="none" xmlns="http://www.w3.org/2000/svg">
<path d="M20.2265 15.9057C20.2548 13.7069 21.431 11.6264 23.297 10.4747C22.1199 8.78689 20.1481 7.71678 18.0967 7.65235C15.9088 7.42179 13.7876 8.96671 12.6727 8.96671C11.5362 8.96671 9.81951 7.67524 7.97097 7.71342C5.56149 7.79157 3.31524 9.16682 2.14297 11.2816C-0.376938 15.6614 1.50269 22.0984 3.91655 25.6387C5.12426 27.3723 6.53572 29.3088 8.38259 29.2401C10.1899 29.1649 10.8648 28.0832 13.0464 28.0832C15.2077 28.0832 15.8409 29.2401 17.7253 29.1965C19.6646 29.1649 20.8864 27.4552 22.0517 25.7051C22.9195 24.4699 23.5872 23.1046 24.0302 21.66C21.7512 20.6923 20.2292 18.3899 20.2265 15.9057Z" fill="#090909"/>
<path d="M16.6673 5.32404C17.7247 4.04974 18.2456 2.41184 18.1195 0.758179C16.504 0.928512 15.0118 1.7036 13.9402 2.92901C12.8922 4.1263 12.3469 5.73538 12.45 7.32584C14.066 7.34254 15.6547 6.58846 16.6673 5.32404Z" fill="#090909"/>
<path d="M36.956 8.47797H38.9892L42.8106 18.5821L46.6228 8.47797H48.656L43.6093 21.5782H41.9937L36.956 8.47797ZM36.0302 8.47797H37.9636L38.2994 17.2235V21.5782H36.0302V8.47797ZM47.6485 8.47797H49.5909V21.5782H47.3127V17.2235L47.6485 8.47797Z" fill="black"/>
<path d="M57.6148 19.6258V14.9831C57.6148 14.6352 57.5513 14.3353 57.4242 14.0834C57.2971 13.8314 57.1035 13.6365 56.8433 13.4985C56.5892 13.3606 56.2684 13.2916 55.8812 13.2916C55.5241 13.2916 55.2155 13.3516 54.9553 13.4715C54.6951 13.5915 54.4924 13.7535 54.3472 13.9574C54.202 14.1613 54.1293 14.3923 54.1293 14.6502H51.9509C51.9509 14.2663 52.0447 13.8944 52.2323 13.5345C52.4199 13.1746 52.6922 12.8537 53.0492 12.5718C53.4062 12.2899 53.8328 12.0679 54.329 11.906C54.8252 11.744 55.3819 11.6631 55.9992 11.6631C56.7374 11.6631 57.3909 11.786 57.9597 12.032C58.5346 12.2779 58.9854 12.6498 59.3122 13.1476C59.645 13.6395 59.8114 14.2573 59.8114 15.0011V19.3289C59.8114 19.7727 59.8417 20.1716 59.9022 20.5255C59.9687 20.8734 60.0625 21.1763 60.1836 21.4343V21.5782H57.9416C57.8387 21.3443 57.757 21.0474 57.6965 20.6875C57.6421 20.3216 57.6148 19.9677 57.6148 19.6258ZM57.9325 15.6579L57.9507 16.9985H56.3804C55.975 16.9985 55.6179 17.0375 55.3093 17.1155C55.0007 17.1875 54.7435 17.2955 54.5378 17.4394C54.3321 17.5834 54.1777 17.7573 54.0749 17.9613C53.972 18.1652 53.9206 18.3961 53.9206 18.6541C53.9206 18.912 53.9811 19.1489 54.1021 19.3649C54.2231 19.5748 54.3986 19.7398 54.6286 19.8597C54.8646 19.9797 55.149 20.0397 55.4818 20.0397C55.9296 20.0397 56.3199 19.9497 56.6527 19.7697C56.9916 19.5838 57.2578 19.3589 57.4514 19.0949C57.6451 18.825 57.748 18.5701 57.7601 18.3302L58.468 19.2929C58.3954 19.5388 58.2714 19.8027 58.0959 20.0847C57.9204 20.3666 57.6905 20.6365 57.4061 20.8944C57.1277 21.1464 56.7919 21.3533 56.3985 21.5152C56.0113 21.6772 55.5635 21.7582 55.0552 21.7582C54.4137 21.7582 53.8419 21.6322 53.3397 21.3803C52.8374 21.1224 52.4441 20.7775 52.1597 20.3456C51.8753 19.9077 51.7331 19.4128 51.7331 18.861C51.7331 18.3452 51.8299 17.8893 52.0235 17.4934C52.2232 17.0915 52.5137 16.7556 52.8949 16.4857C53.2822 16.2158 53.7542 16.0118 54.3109 15.8739C54.8676 15.7299 55.503 15.6579 56.217 15.6579H57.9325Z" fill="black"/>
<path d="M66.1107 20.0307C66.4677 20.0307 66.7884 19.9617 67.0728 19.8237C67.3633 19.6798 67.5963 19.4818 67.7718 19.2299C67.9533 18.978 68.0531 18.6871 68.0713 18.3572H70.1317C70.1196 18.987 69.932 19.5598 69.569 20.0757C69.2059 20.5915 68.7248 21.0024 68.1258 21.3083C67.5267 21.6082 66.8641 21.7582 66.1379 21.7582C65.3876 21.7582 64.7341 21.6322 64.1774 21.3803C63.6206 21.1224 63.1577 20.7685 62.7886 20.3186C62.4195 19.8687 62.1411 19.3499 61.9535 18.762C61.772 18.1742 61.6812 17.5444 61.6812 16.8726V16.5577C61.6812 15.8859 61.772 15.256 61.9535 14.6682C62.1411 14.0744 62.4195 13.5525 62.7886 13.1027C63.1577 12.6528 63.6206 12.3019 64.1774 12.05C64.7341 11.792 65.3846 11.6631 66.1289 11.6631C66.9155 11.6631 67.6054 11.819 68.1984 12.1309C68.7914 12.4368 69.2573 12.8657 69.5962 13.4176C69.9411 13.9634 70.1196 14.5992 70.1317 15.325H68.0713C68.0531 14.9651 67.9624 14.6412 67.799 14.3533C67.6417 14.0594 67.4178 13.8254 67.1273 13.6515C66.8429 13.4775 66.501 13.3906 66.1016 13.3906C65.6599 13.3906 65.2938 13.4805 65.0033 13.6605C64.7129 13.8344 64.486 14.0744 64.3226 14.3803C64.1592 14.6802 64.0412 15.0191 63.9686 15.397C63.902 15.7689 63.8687 16.1558 63.8687 16.5577V16.8726C63.8687 17.2745 63.902 17.6643 63.9686 18.0422C64.0351 18.4201 64.1501 18.759 64.3135 19.059C64.4829 19.3529 64.7129 19.5898 65.0033 19.7697C65.2938 19.9437 65.6629 20.0307 66.1107 20.0307Z" fill="black"/>
<path d="M71.82 7.75818H74.0075V19.4998L73.7988 21.5782H71.82V7.75818ZM80.4157 16.6206V16.8096C80.4157 17.5294 80.334 18.1922 80.1707 18.798C80.0133 19.3979 79.7713 19.9197 79.4445 20.3636C79.1238 20.8075 78.7244 21.1524 78.2464 21.3983C77.7744 21.6382 77.2268 21.7582 76.6035 21.7582C75.9923 21.7582 75.4598 21.6442 75.006 21.4163C74.5521 21.1883 74.1709 20.8644 73.8623 20.4446C73.5597 20.0247 73.3147 19.5238 73.1271 18.942C72.9395 18.3601 72.8064 17.7183 72.7277 17.0165V16.4137C72.8064 15.7059 72.9395 15.0641 73.1271 14.4883C73.3147 13.9064 73.5597 13.4056 73.8623 12.9857C74.1709 12.5598 74.5491 12.2329 74.9969 12.005C75.4507 11.777 75.9802 11.6631 76.5853 11.6631C77.2147 11.6631 77.7683 11.783 78.2464 12.023C78.7305 12.2629 79.1329 12.6048 79.4536 13.0487C79.7743 13.4865 80.0133 14.0084 80.1707 14.6142C80.334 15.22 80.4157 15.8889 80.4157 16.6206ZM78.2282 16.8096V16.6206C78.2282 16.1828 78.1919 15.7719 78.1193 15.388C78.0467 14.9981 77.9257 14.6562 77.7562 14.3623C77.5929 14.0684 77.369 13.8374 77.0846 13.6695C76.8062 13.4955 76.4583 13.4086 76.0407 13.4086C75.6534 13.4086 75.3206 13.4745 75.0423 13.6065C74.7639 13.7385 74.5309 13.9184 74.3434 14.1464C74.1558 14.3743 74.0075 14.6382 73.8986 14.9381C73.7957 15.238 73.7261 15.5619 73.6898 15.9099V17.5384C73.7443 17.9883 73.8593 18.4021 74.0348 18.78C74.2163 19.1519 74.4704 19.4518 74.7972 19.6798C75.124 19.9017 75.5445 20.0127 76.0589 20.0127C76.4643 20.0127 76.8062 19.9317 77.0846 19.7697C77.3629 19.6078 77.5838 19.3829 77.7472 19.0949C77.9166 18.801 78.0376 18.4591 78.1102 18.0692C78.1889 17.6793 78.2282 17.2595 78.2282 16.8096Z" fill="black"/>
<path d="M81.8499 16.8186V16.6116C81.8499 15.9099 81.9527 15.259 82.1585 14.6592C82.3642 14.0534 82.6607 13.5285 83.048 13.0847C83.4413 12.6348 83.9194 12.2869 84.4821 12.041C85.051 11.789 85.6924 11.6631 86.4064 11.6631C87.1265 11.6631 87.7679 11.789 88.3307 12.041C88.8995 12.2869 89.3806 12.6348 89.7739 13.0847C90.1672 13.5285 90.4668 14.0534 90.6725 14.6592C90.8783 15.259 90.9811 15.9099 90.9811 16.6116V16.8186C90.9811 17.5204 90.8783 18.1712 90.6725 18.771C90.4668 19.3709 90.1672 19.8957 89.7739 20.3456C89.3806 20.7895 88.9025 21.1374 88.3398 21.3893C87.777 21.6352 87.1386 21.7582 86.4246 21.7582C85.7045 21.7582 85.06 21.6352 84.4912 21.3893C83.9285 21.1374 83.4504 20.7895 83.0571 20.3456C82.6638 19.8957 82.3642 19.3709 82.1585 18.771C81.9527 18.1712 81.8499 17.5204 81.8499 16.8186ZM84.0374 16.6116V16.8186C84.0374 17.2565 84.0828 17.6703 84.1735 18.0602C84.2643 18.4501 84.4065 18.792 84.6001 19.0859C84.7938 19.3799 85.0419 19.6108 85.3444 19.7787C85.647 19.9467 86.007 20.0307 86.4246 20.0307C86.83 20.0307 87.181 19.9467 87.4775 19.7787C87.78 19.6108 88.0281 19.3799 88.2218 19.0859C88.4154 18.792 88.5576 18.4501 88.6484 18.0602C88.7452 17.6703 88.7936 17.2565 88.7936 16.8186V16.6116C88.7936 16.1798 88.7452 15.7719 88.6484 15.388C88.5576 14.9981 88.4124 14.6532 88.2127 14.3533C88.0191 14.0534 87.771 13.8194 87.4684 13.6515C87.1719 13.4775 86.8179 13.3906 86.4064 13.3906C85.9949 13.3906 85.6379 13.4775 85.3354 13.6515C85.0389 13.8194 84.7938 14.0534 84.6001 14.3533C84.4065 14.6532 84.2643 14.9981 84.1735 15.388C84.0828 15.7719 84.0374 16.1798 84.0374 16.6116Z" fill="black"/>
<path d="M92.3971 16.8186V16.6116C92.3971 15.9099 92.5 15.259 92.7057 14.6592C92.9115 14.0534 93.208 13.5285 93.5952 13.0847C93.9886 12.6348 94.4666 12.2869 95.0294 12.041C95.5982 11.789 96.2396 11.6631 96.9537 11.6631C97.6737 11.6631 98.3152 11.789 98.8779 12.041C99.4468 12.2869 99.9278 12.6348 100.321 13.0847C100.714 13.5285 101.014 14.0534 101.22 14.6592C101.425 15.259 101.528 15.9099 101.528 16.6116V16.8186C101.528 17.5204 101.425 18.1712 101.22 18.771C101.014 19.3709 100.714 19.8957 100.321 20.3456C99.9278 20.7895 99.4498 21.1374 98.887 21.3893C98.3243 21.6352 97.6859 21.7582 96.9718 21.7582C96.2517 21.7582 95.6073 21.6352 95.0385 21.3893C94.4757 21.1374 93.9976 20.7895 93.6043 20.3456C93.211 19.8957 92.9115 19.3709 92.7057 18.771C92.5 18.1712 92.3971 17.5204 92.3971 16.8186ZM94.5846 16.6116V16.8186C94.5846 17.2565 94.63 17.6703 94.7208 18.0602C94.8115 18.4501 94.9537 18.792 95.1474 19.0859C95.341 19.3799 95.5891 19.6108 95.8917 19.7787C96.1942 19.9467 96.5543 20.0307 96.9718 20.0307C97.3772 20.0307 97.7282 19.9467 98.0247 19.7787C98.3273 19.6108 98.5754 19.3799 98.769 19.0859C98.9627 18.792 99.1049 18.4501 99.1956 18.0602C99.2924 17.6703 99.3409 17.2565 99.3409 16.8186V16.6116C99.3409 16.1798 99.2924 15.7719 99.1956 15.388C99.1049 14.9981 98.9596 14.6532 98.7599 14.3533C98.5663 14.0534 98.3182 13.8194 98.0156 13.6515C97.7191 13.4775 97.3651 13.3906 96.9537 13.3906C96.5422 13.3906 96.1852 13.4775 95.8826 13.6515C95.5861 13.8194 95.341 14.0534 95.1474 14.3533C94.9537 14.6532 94.8115 14.9981 94.7208 15.388C94.63 15.7719 94.5846 16.1798 94.5846 16.6116Z" fill="black"/>
<path d="M105.568 7.75818V21.5782H103.371V7.75818H105.568ZM111.667 11.843L107.392 16.5397L105.05 18.915L104.478 17.0795L106.248 14.9111L109.026 11.843H111.667ZM109.498 21.5782L106.312 17.0075L107.692 15.487L112.03 21.5782H109.498Z" fill="black"/>
</svg>
